<svg width="128" height="128" viewBox="0 0 128 128" fill="none" xmlns="http://www.w3.org/2000/svg">
<path d="M81.504 9.46489C82.477 10.6719 82.973 12.3009 83.961 15.5549L105.617 86.6909C97.4831 82.4693 88.7526 79.5136 79.727 77.9259L65.629 30.2799C65.5177 29.899 65.2858 29.5645 64.9682 29.3267C64.6505 29.0889 64.2643 28.9606 63.8675 28.961C63.4707 28.9615 63.0848 29.0907 62.7677 29.3292C62.4506 29.5678 62.2194 29.9028 62.109 30.2839L48.18 77.9019C39.115 79.4829 30.3456 82.4433 22.177 86.6799L43.935 15.5399C44.931 12.2899 45.427 10.6639 46.399 9.45689C47.2582 8.39444 48.3744 7.56903 49.642 7.05889C51.075 6.48389 52.778 6.48389 56.177 6.48389H71.72C75.122 6.48389 76.825 6.48389 78.263 7.06289C79.5314 7.57293 80.6467 8.39998 81.504 9.46489Z" fill="url(#paint0_linear_79_66)"/>
<path d="M84.094 90.0745C80.524 93.1295 73.398 95.2115 65.191 95.2115C55.121 95.2115 46.676 92.0745 44.437 87.8555C43.637 90.2735 43.457 93.0395 43.457 94.8095C43.457 94.8095 42.93 103.484 48.965 109.519C48.965 108.775 49.1117 108.037 49.3967 107.349C49.6818 106.661 50.0996 106.036 50.6263 105.509C51.153 104.982 51.7783 104.565 52.4665 104.28C53.1546 103.995 53.8922 103.848 54.637 103.848C60.007 103.848 60.004 108.531 60 112.336V112.672C60 118.445 63.527 123.391 68.543 125.477C67.7699 123.889 67.3691 122.146 67.371 120.379C67.371 114.871 70.601 112.824 74.359 110.441C77.348 108.547 80.668 106.441 82.953 102.219C84.1862 99.9445 84.8308 97.3972 84.828 94.8095C84.8294 93.2027 84.5818 91.6054 84.094 90.0745Z" fill="#FF5D01"/>
<path d="M84.094 90.0745C80.524 93.1295 73.398 95.2115 65.191 95.2115C55.121 95.2115 46.676 92.0745 44.437 87.8555C43.637 90.2735 43.457 93.0395 43.457 94.8095C43.457 94.8095 42.93 103.484 48.965 109.519C48.965 108.775 49.1117 108.037 49.3967 107.349C49.6818 106.661 50.0996 106.036 50.6263 105.509C51.153 104.982 51.7783 104.565 52.4665 104.28C53.1546 103.995 53.8922 103.848 54.637 103.848C60.007 103.848 60.004 108.531 60 112.336V112.672C60 118.445 63.527 123.391 68.543 125.477C67.7699 123.889 67.3691 122.146 67.371 120.379C67.371 114.871 70.601 112.824 74.359 110.441C77.348 108.547 80.668 106.441 82.953 102.219C84.1862 99.9445 84.8308 97.3972 84.828 94.8095C84.8294 93.2027 84.5818 91.6054 84.094 90.0745Z" fill="url(#paint1_linear_79_66)"/>
<defs>
<linearGradient id="paint0_linear_79_66" x1="88.2997" y1="2.71119" x2="63.8955" y2="86.6901" gradientUnits="userSpaceOnUse">
<stop stop-color="#000014"/>
<stop offset="1" stop-color="#150426"/>
</linearGradient>
<linearGradient id="paint1_linear_79_66" x1="100.168" y1="65.2455" x2="79.0326" y2="109.491" gradientUnits="userSpaceOnUse">
<stop stop-color="#FF1639"/>
<stop offset="1" stop-color="#FF1639" stop-opacity="0"/>
</linearGradient>
</defs>
</svg>
